<svg width="48" height="48" viewBox="0 0 48 48" fill="none" xmlns="http://www.w3.org/2000/svg">
<g clip-path="url(#clip0_47_65)">
<path opacity="0.995" fill-rule="evenodd" clip-rule="evenodd" d="M22.5053 -0.0375061C23.3879 -0.0375061 24.2705 -0.0375061 25.153 -0.0375061C29.965 0.774654 33.3102 3.17465 35.1886 7.16249C35.8199 8.66347 36.0903 10.2134 36 11.8125C39.5873 11.8 43.1744 11.8125 46.7615 11.85C47.3406 11.9965 47.7392 12.309 47.9573 12.7875C47.9573 13.4125 47.9573 14.0375 47.9573 14.6625C47.5016 24.7017 47.0319 34.7517 46.548 44.8125C46.016 46.5173 44.7776 47.5673 42.8327 47.9625C36.2278 47.9625 29.6227 47.9625 23.0178 47.9625C17.1959 47.9 11.3595 47.8625 5.50888 47.85C3.31291 47.4967 1.98907 46.3591 1.53735 44.4375C1.02616 34.45 0.499475 24.475 -0.0427246 14.5125C-0.0427246 13.9375 -0.0427246 13.3625 -0.0427246 12.7875C0.175353 12.309 0.573928 11.9965 1.153 11.85C4.79703 11.8125 8.44115 11.8 12.0854 11.8125C11.9327 7.14221 14.0963 3.57971 18.5765 1.12499C19.8305 0.562152 21.1401 0.174652 22.5053 -0.0375061ZM23.3594 2.88749C26.8885 2.90055 29.5219 4.25055 31.2598 6.93749C32.185 8.46232 32.5693 10.0873 32.4128 11.8125C26.7473 11.8125 21.0818 11.8125 15.4164 11.8125C15.2725 7.87492 17.2085 5.06242 21.2242 3.37499C21.9298 3.15143 22.6415 2.98893 23.3594 2.88749Z" fill="#529B03"/>
<path fill-rule="evenodd" clip-rule="evenodd" d="M23.4448 18.6375C26.6297 18.5579 29.4623 19.3829 31.9431 21.1125C32.2495 20.5175 32.7478 20.355 33.4377 20.625C33.57 20.7161 33.6696 20.8286 33.7367 20.9625C33.8182 21.8198 33.7898 22.6698 33.6512 23.5125C33.5114 23.6858 33.3263 23.7983 33.0961 23.85C32.185 23.9 31.274 23.9 30.363 23.85C29.9827 23.6947 29.8118 23.4322 29.8505 23.0625C29.8734 22.6296 30.1296 22.3671 30.6192 22.275C26.5656 19.7264 22.4375 19.6265 18.2349 21.975C17.5834 22.422 16.957 22.897 16.3559 23.4C15.7621 23.696 15.2924 23.5835 14.9466 23.0625C14.8751 22.7779 14.9036 22.5029 15.032 22.2375C17.3312 20.1218 20.1355 18.9218 23.4448 18.6375Z" fill="#FDFEFC"/>
<path fill-rule="evenodd" clip-rule="evenodd" d="M13.3666 25.3875C13.7809 25.3338 14.1368 25.4338 14.4342 25.6875C14.8827 26.3001 15.3098 26.9251 15.7153 27.5625C15.81 28.1969 15.4968 28.5469 14.7758 28.6125C14.5286 28.6101 14.315 28.5351 14.1352 28.3875C13.7558 32.7349 15.7772 35.8725 20.1993 37.8C21.0076 38.0949 21.8333 38.3449 22.6762 38.55C23.2728 39.0826 23.2158 39.5575 22.5054 39.975C22.2207 40.025 21.9359 40.025 21.6513 39.975C16.2471 38.6548 13.1012 35.5673 12.2135 30.7125C12.1514 29.7859 12.1655 28.8609 12.2562 27.9375C11.1087 27.8595 10.7956 27.372 11.3167 26.475C12.0146 26.1227 12.6979 25.7602 13.3666 25.3875Z" fill="#FDFEFC"/>
<path fill-rule="evenodd" clip-rule="evenodd" d="M34.2918 25.3875C34.7676 25.3062 35.1519 25.4312 35.4449 25.7625C36.9551 29.7553 36.2149 33.3802 33.2242 36.6375C31.918 37.8358 30.4233 38.7984 28.7402 39.525C29.1118 39.993 29.0548 40.4179 28.5694 40.8C28.2671 40.9128 27.954 40.9378 27.6299 40.875C27.0036 40.575 26.3772 40.275 25.7509 39.975C25.4298 39.6943 25.3302 39.3568 25.452 38.9625C25.8175 38.2324 26.2588 37.545 26.7758 36.9C27.7005 36.6696 28.213 36.9821 28.3132 37.8375C32.6273 35.8371 34.6059 32.6871 34.2491 28.3875C34.1246 27.6376 33.9395 26.9 33.694 26.175C33.7415 25.8213 33.9407 25.5588 34.2918 25.3875Z" fill="#FDFEFC"/>
</g>
<defs>
<clipPath id="clip0_47_65">
<rect width="48" height="48" fill="white"/>
</clipPath>
</defs>
</svg>
