<svg width="183" height="48" viewBox="0 0 183 48" fill="none" xmlns="http://www.w3.org/2000/svg">
<path d="M66.4418 21.0497C66.3045 20.6188 66.1198 20.233 65.8878 19.892C65.6605 19.5464 65.3883 19.2528 65.071 19.0114C64.7538 18.7652 64.3916 18.5781 63.9844 18.4503C63.5819 18.3224 63.1392 18.2585 62.6562 18.2585C61.8371 18.2585 61.0985 18.4692 60.4403 18.8906C59.7822 19.312 59.2614 19.9299 58.8778 20.7443C58.4991 21.554 58.3097 22.5459 58.3097 23.7202C58.3097 24.8991 58.5014 25.8958 58.8849 26.7102C59.2685 27.5246 59.794 28.1425 60.4616 28.5639C61.1293 28.9853 61.8892 29.196 62.7415 29.196C63.5322 29.196 64.2211 29.035 64.8082 28.7131C65.4001 28.3911 65.857 27.9366 66.179 27.3494C66.5057 26.7576 66.669 26.0616 66.669 25.2614L67.2372 25.3679H63.0753V23.5568H68.7926V25.2116C68.7926 26.4332 68.5322 27.4938 68.0114 28.3935C67.4953 29.2884 66.7803 29.9796 65.8665 30.4673C64.9574 30.955 63.9157 31.1989 62.7415 31.1989C61.4252 31.1989 60.2699 30.8958 59.2756 30.2898C58.286 29.6837 57.5142 28.8243 56.9602 27.7116C56.4063 26.5942 56.1293 25.2685 56.1293 23.7344C56.1293 22.5743 56.2902 21.5327 56.6122 20.6094C56.9342 19.6861 57.3864 18.9025 57.9688 18.2585C58.5559 17.6098 59.2448 17.1151 60.0355 16.7741C60.831 16.4285 61.6998 16.2557 62.642 16.2557C63.428 16.2557 64.1596 16.3717 64.8366 16.6037C65.5185 16.8357 66.1245 17.1648 66.6548 17.5909C67.1899 18.017 67.6326 18.5237 67.983 19.1108C68.3333 19.6932 68.5701 20.3395 68.6932 21.0497H66.4418ZM78.3185 26.4759V20.0909H80.4492V31H78.3612V29.1108H78.2475C77.9966 29.6932 77.5941 30.1785 77.0401 30.5668C76.4909 30.9503 75.8067 31.142 74.9876 31.142C74.2868 31.142 73.6665 30.9882 73.1268 30.6804C72.5917 30.3679 72.1703 29.9062 71.8626 29.2955C71.5595 28.6847 71.408 27.9295 71.408 27.0298V20.0909H73.5316V26.7741C73.5316 27.5175 73.7376 28.1094 74.1495 28.5497C74.5614 28.9901 75.0965 29.2102 75.7546 29.2102C76.1523 29.2102 76.5477 29.1108 76.9407 28.9119C77.3384 28.7131 77.6675 28.4124 77.9279 28.0099C78.1931 27.6075 78.3233 27.0961 78.3185 26.4759ZM85.4261 24.5227V31H83.3026V20.0909H85.3409V21.8665H85.4759C85.7268 21.2888 86.1198 20.8248 86.6548 20.4744C87.1946 20.1241 87.8741 19.9489 88.6932 19.9489C89.4366 19.9489 90.0876 20.1051 90.6463 20.4176C91.205 20.7254 91.6383 21.1847 91.946 21.7955C92.2538 22.4062 92.4077 23.1615 92.4077 24.0611V31H90.2841V24.3168C90.2841 23.526 90.0781 22.9081 89.6662 22.4631C89.2543 22.0133 88.6884 21.7884 87.9688 21.7884C87.4763 21.7884 87.0384 21.8949 86.6548 22.108C86.276 22.321 85.9754 22.6335 85.7528 23.0455C85.535 23.4527 85.4261 23.9451 85.4261 24.5227ZM98.4304 31.2415C97.7391 31.2415 97.1141 31.1136 96.5554 30.858C95.9967 30.5975 95.554 30.2211 95.2273 29.7287C94.9053 29.2363 94.7443 28.6326 94.7443 27.9176C94.7443 27.3021 94.8627 26.7955 95.0994 26.3977C95.3362 26 95.6558 25.6851 96.0582 25.4531C96.4607 25.2211 96.9105 25.0459 97.4077 24.9276C97.9048 24.8092 98.4115 24.7192 98.9276 24.6577C99.581 24.5819 100.111 24.5204 100.518 24.473C100.926 24.4209 101.222 24.3381 101.406 24.2244C101.591 24.1108 101.683 23.9261 101.683 23.6705V23.6207C101.683 23.0005 101.508 22.5199 101.158 22.179C100.812 21.8381 100.296 21.6676 99.6094 21.6676C98.8944 21.6676 98.331 21.8262 97.919 22.1435C97.5118 22.456 97.2301 22.804 97.0739 23.1875L95.0781 22.733C95.3149 22.0701 95.6605 21.535 96.1151 21.1278C96.5743 20.7159 97.1023 20.4176 97.6989 20.233C98.2955 20.0436 98.9228 19.9489 99.581 19.9489C100.017 19.9489 100.478 20.0009 100.966 20.1051C101.458 20.2045 101.918 20.3892 102.344 20.6591C102.775 20.929 103.127 21.3149 103.402 21.8168C103.677 22.3139 103.814 22.9602 103.814 23.7557V31H101.74V29.5085H101.655C101.518 29.7831 101.312 30.053 101.037 30.3182C100.762 30.5833 100.41 30.8035 99.9787 30.9787C99.5478 31.1539 99.0317 31.2415 98.4304 31.2415ZM98.892 29.5369C99.4792 29.5369 99.9811 29.4209 100.398 29.1889C100.819 28.9569 101.139 28.6539 101.357 28.2798C101.579 27.901 101.69 27.4962 101.69 27.0653V25.6591C101.615 25.7348 101.468 25.8059 101.25 25.8722C101.037 25.9337 100.793 25.9882 100.518 26.0355C100.244 26.0781 99.9763 26.1184 99.7159 26.1562C99.4555 26.1894 99.2377 26.2178 99.0625 26.2415C98.6506 26.2936 98.2741 26.3812 97.9332 26.5043C97.5971 26.6274 97.3272 26.8049 97.1236 27.0369C96.9247 27.2642 96.8253 27.5672 96.8253 27.946C96.8253 28.4716 97.0194 28.8693 97.4077 29.1392C97.7959 29.4044 98.2907 29.5369 98.892 29.5369ZM114.746 20.2756C114.67 19.6032 114.358 19.0824 113.809 18.7131C113.259 18.339 112.568 18.152 111.735 18.152C111.138 18.152 110.622 18.2467 110.186 18.4361C109.751 18.6207 109.412 18.8764 109.171 19.2031C108.934 19.5251 108.816 19.892 108.816 20.304C108.816 20.6496 108.896 20.9479 109.057 21.1989C109.223 21.4498 109.438 21.6605 109.703 21.831C109.973 21.9967 110.262 22.1364 110.57 22.25C110.878 22.3589 111.174 22.4489 111.458 22.5199L112.878 22.8892C113.342 23.0028 113.818 23.1567 114.306 23.3509C114.793 23.545 115.246 23.8007 115.662 24.1179C116.079 24.4351 116.415 24.8281 116.671 25.2969C116.931 25.7656 117.061 26.3267 117.061 26.9801C117.061 27.804 116.848 28.5355 116.422 29.1747C116.001 29.8139 115.388 30.3182 114.583 30.6875C113.783 31.0568 112.814 31.2415 111.678 31.2415C110.589 31.2415 109.647 31.0687 108.851 30.723C108.056 30.3774 107.433 29.8873 106.983 29.2528C106.533 28.6136 106.285 27.8561 106.238 26.9801H108.439C108.482 27.5057 108.652 27.9437 108.951 28.294C109.254 28.6397 109.64 28.8977 110.108 29.0682C110.582 29.2339 111.1 29.3168 111.664 29.3168C112.284 29.3168 112.836 29.2197 113.319 29.0256C113.806 28.8267 114.19 28.5521 114.469 28.2017C114.748 27.8466 114.888 27.4323 114.888 26.9588C114.888 26.5279 114.765 26.1752 114.519 25.9006C114.277 25.6259 113.948 25.3987 113.532 25.2188C113.12 25.0388 112.653 24.8802 112.132 24.7429L110.414 24.2741C109.249 23.9569 108.326 23.4905 107.644 22.875C106.967 22.2595 106.628 21.4451 106.628 20.4318C106.628 19.5937 106.855 18.8622 107.31 18.2372C107.765 17.6122 108.38 17.1269 109.157 16.7812C109.933 16.4309 110.809 16.2557 111.784 16.2557C112.769 16.2557 113.638 16.4285 114.391 16.7741C115.149 17.1198 115.745 17.5956 116.181 18.2017C116.616 18.803 116.844 19.4943 116.863 20.2756H114.746ZM122.688 31.2415C121.997 31.2415 121.372 31.1136 120.813 30.858C120.254 30.5975 119.812 30.2211 119.485 29.7287C119.163 29.2363 119.002 28.6326 119.002 27.9176C119.002 27.3021 119.121 26.7955 119.357 26.3977C119.594 26 119.914 25.6851 120.316 25.4531C120.719 25.2211 121.168 25.0459 121.665 24.9276C122.163 24.8092 122.669 24.7192 123.185 24.6577C123.839 24.5819 124.369 24.5204 124.776 24.473C125.183 24.4209 125.479 24.3381 125.664 24.2244C125.849 24.1108 125.941 23.9261 125.941 23.6705V23.6207C125.941 23.0005 125.766 22.5199 125.415 22.179C125.07 21.8381 124.554 21.6676 123.867 21.6676C123.152 21.6676 122.589 21.8262 122.177 22.1435C121.77 22.456 121.488 22.804 121.332 23.1875L119.336 22.733C119.573 22.0701 119.918 21.535 120.373 21.1278C120.832 20.7159 121.36 20.4176 121.957 20.233C122.553 20.0436 123.181 19.9489 123.839 19.9489C124.274 19.9489 124.736 20.0009 125.224 20.1051C125.716 20.2045 126.175 20.3892 126.602 20.6591C127.032 20.929 127.385 21.3149 127.66 21.8168C127.934 22.3139 128.072 22.9602 128.072 23.7557V31H125.998V29.5085H125.913C125.775 29.7831 125.569 30.053 125.295 30.3182C125.02 30.5833 124.667 30.8035 124.237 30.9787C123.806 31.1539 123.29 31.2415 122.688 31.2415ZM123.15 29.5369C123.737 29.5369 124.239 29.4209 124.656 29.1889C125.077 28.9569 125.397 28.6539 125.614 28.2798C125.837 27.901 125.948 27.4962 125.948 27.0653V25.6591C125.872 25.7348 125.726 25.8059 125.508 25.8722C125.295 25.9337 125.051 25.9882 124.776 26.0355C124.502 26.0781 124.234 26.1184 123.974 26.1562C123.713 26.1894 123.496 26.2178 123.32 26.2415C122.908 26.2936 122.532 26.3812 122.191 26.5043C121.855 26.6274 121.585 26.8049 121.381 27.0369C121.183 27.2642 121.083 27.5672 121.083 27.946C121.083 28.4716 121.277 28.8693 121.665 29.1392C122.054 29.4044 122.549 29.5369 123.15 29.5369ZM130.9 31V20.0909H132.939V21.8665H133.074C133.301 21.2652 133.672 20.7964 134.189 20.4602C134.705 20.1193 135.323 19.9489 136.042 19.9489C136.771 19.9489 137.382 20.1193 137.875 20.4602C138.372 20.8011 138.739 21.2699 138.975 21.8665H139.089C139.35 21.2841 139.764 20.8201 140.332 20.4744C140.9 20.1241 141.577 19.9489 142.363 19.9489C143.353 19.9489 144.16 20.259 144.785 20.8793C145.415 21.4995 145.73 22.4347 145.73 23.6847V31H143.606V23.8835C143.606 23.1449 143.405 22.6098 143.002 22.2784C142.6 21.947 142.119 21.7812 141.561 21.7812C140.869 21.7812 140.332 21.9943 139.949 22.4205C139.565 22.8419 139.373 23.384 139.373 24.0469V31H137.257V23.7486C137.257 23.1567 137.072 22.6809 136.703 22.321C136.333 21.9612 135.853 21.7812 135.261 21.7812C134.859 21.7812 134.487 21.8878 134.146 22.1009C133.81 22.3092 133.538 22.6004 133.329 22.9744C133.126 23.3485 133.024 23.7817 133.024 24.2741V31H130.9ZM148.576 35.0909V20.0909H150.65V21.8594H150.827C150.951 21.6321 151.128 21.3693 151.36 21.071C151.592 20.7727 151.914 20.5123 152.326 20.2898C152.738 20.0625 153.282 19.9489 153.96 19.9489C154.84 19.9489 155.626 20.1714 156.317 20.6165C157.009 21.0616 157.551 21.7031 157.944 22.5412C158.342 23.3793 158.54 24.3878 158.54 25.5668C158.54 26.7457 158.344 27.7566 157.951 28.5994C157.558 29.4375 157.018 30.0838 156.332 30.5384C155.645 30.9882 154.862 31.2131 153.981 31.2131C153.318 31.2131 152.776 31.1018 152.354 30.8793C151.938 30.6567 151.611 30.3963 151.374 30.098C151.138 29.7997 150.955 29.5346 150.827 29.3026H150.7V35.0909H148.576ZM150.657 25.5455C150.657 26.3125 150.768 26.9848 150.991 27.5625C151.213 28.1402 151.535 28.5923 151.957 28.919C152.378 29.241 152.894 29.402 153.505 29.402C154.139 29.402 154.67 29.2339 155.096 28.8977C155.522 28.5568 155.844 28.0952 156.062 27.5128C156.284 26.9304 156.396 26.2746 156.396 25.5455C156.396 24.8258 156.287 24.1795 156.069 23.6065C155.856 23.0336 155.534 22.5814 155.103 22.25C154.677 21.9186 154.144 21.7528 153.505 21.7528C152.889 21.7528 152.369 21.9115 151.942 22.2287C151.521 22.5459 151.201 22.9886 150.984 23.5568C150.766 24.125 150.657 24.7879 150.657 25.5455ZM164.094 31.2415C163.403 31.2415 162.778 31.1136 162.219 30.858C161.661 30.5975 161.218 30.2211 160.891 29.7287C160.569 29.2363 160.408 28.6326 160.408 27.9176C160.408 27.3021 160.527 26.7955 160.763 26.3977C161 26 161.32 25.6851 161.722 25.4531C162.125 25.2211 162.575 25.0459 163.072 24.9276C163.569 24.8092 164.076 24.7192 164.592 24.6577C165.245 24.5819 165.775 24.5204 166.183 24.473C166.59 24.4209 166.886 24.3381 167.07 24.2244C167.255 24.1108 167.347 23.9261 167.347 23.6705V23.6207C167.347 23.0005 167.172 22.5199 166.822 22.179C166.476 21.8381 165.96 21.6676 165.273 21.6676C164.558 21.6676 163.995 21.8262 163.583 22.1435C163.176 22.456 162.894 22.804 162.738 23.1875L160.742 22.733C160.979 22.0701 161.325 21.535 161.779 21.1278C162.238 20.7159 162.766 20.4176 163.363 20.233C163.96 20.0436 164.587 19.9489 165.245 19.9489C165.681 19.9489 166.142 20.0009 166.63 20.1051C167.122 20.2045 167.582 20.3892 168.008 20.6591C168.439 20.929 168.791 21.3149 169.066 21.8168C169.341 22.3139 169.478 22.9602 169.478 23.7557V31H167.404V29.5085H167.319C167.182 29.7831 166.976 30.053 166.701 30.3182C166.426 30.5833 166.074 30.8035 165.643 30.9787C165.212 31.1539 164.696 31.2415 164.094 31.2415ZM164.556 29.5369C165.143 29.5369 165.645 29.4209 166.062 29.1889C166.483 28.9569 166.803 28.6539 167.021 28.2798C167.243 27.901 167.354 27.4962 167.354 27.0653V25.6591C167.279 25.7348 167.132 25.8059 166.914 25.8722C166.701 25.9337 166.457 25.9882 166.183 26.0355C165.908 26.0781 165.64 26.1184 165.38 26.1562C165.12 26.1894 164.902 26.2178 164.727 26.2415C164.315 26.2936 163.938 26.3812 163.597 26.5043C163.261 26.6274 162.991 26.8049 162.788 27.0369C162.589 27.2642 162.489 27.5672 162.489 27.946C162.489 28.4716 162.683 28.8693 163.072 29.1392C163.46 29.4044 163.955 29.5369 164.556 29.5369ZM174.43 24.5227V31H172.306V16.4545H174.402V21.8665H174.537C174.792 21.2794 175.183 20.813 175.708 20.4673C176.234 20.1217 176.921 19.9489 177.768 19.9489C178.516 19.9489 179.17 20.1027 179.728 20.4105C180.292 20.7183 180.727 21.1776 181.035 21.7884C181.348 22.3944 181.504 23.152 181.504 24.0611V31H179.38V24.3168C179.38 23.5166 179.174 22.8963 178.762 22.456C178.35 22.0109 177.778 21.7884 177.044 21.7884C176.542 21.7884 176.092 21.8949 175.694 22.108C175.301 22.321 174.991 22.6335 174.764 23.0455C174.541 23.4527 174.43 23.9451 174.43 24.5227Z" fill="black"/>
<g clip-path="url(#clip0_47_74)">
<path opacity="0.995" fill-rule="evenodd" clip-rule="evenodd" d="M22.5053 -0.0375061C23.3879 -0.0375061 24.2705 -0.0375061 25.153 -0.0375061C29.965 0.774654 33.3102 3.17465 35.1886 7.16249C35.8199 8.66347 36.0903 10.2134 36 11.8125C39.5873 11.8 43.1744 11.8125 46.7615 11.85C47.3406 11.9965 47.7392 12.309 47.9573 12.7875C47.9573 13.4125 47.9573 14.0375 47.9573 14.6625C47.5016 24.7017 47.0319 34.7517 46.548 44.8125C46.016 46.5173 44.7776 47.5673 42.8327 47.9625C36.2278 47.9625 29.6227 47.9625 23.0178 47.9625C17.1959 47.9 11.3595 47.8625 5.50888 47.85C3.31291 47.4967 1.98907 46.3591 1.53735 44.4375C1.02616 34.45 0.499475 24.475 -0.0427246 14.5125C-0.0427246 13.9375 -0.0427246 13.3625 -0.0427246 12.7875C0.175353 12.309 0.573928 11.9965 1.153 11.85C4.79703 11.8125 8.44115 11.8 12.0854 11.8125C11.9327 7.14221 14.0963 3.57971 18.5765 1.12499C19.8305 0.562152 21.1401 0.174652 22.5053 -0.0375061ZM23.3594 2.88749C26.8885 2.90055 29.5219 4.25055 31.2598 6.93749C32.185 8.46232 32.5693 10.0873 32.4128 11.8125C26.7473 11.8125 21.0818 11.8125 15.4164 11.8125C15.2725 7.87492 17.2085 5.06242 21.2242 3.37499C21.9298 3.15143 22.6415 2.98893 23.3594 2.88749Z" fill="#529B03"/>
<path fill-rule="evenodd" clip-rule="evenodd" d="M23.4448 18.6375C26.6297 18.5579 29.4623 19.3829 31.9431 21.1125C32.2495 20.5175 32.7478 20.355 33.4377 20.625C33.57 20.7161 33.6696 20.8286 33.7367 20.9625C33.8182 21.8198 33.7898 22.6698 33.6512 23.5125C33.5114 23.6858 33.3263 23.7983 33.0961 23.85C32.185 23.9 31.274 23.9 30.363 23.85C29.9827 23.6947 29.8118 23.4322 29.8505 23.0625C29.8734 22.6296 30.1296 22.3671 30.6192 22.275C26.5656 19.7264 22.4375 19.6265 18.2349 21.975C17.5834 22.422 16.957 22.897 16.3559 23.4C15.7621 23.696 15.2924 23.5835 14.9466 23.0625C14.8751 22.7779 14.9036 22.5029 15.032 22.2375C17.3312 20.1218 20.1355 18.9218 23.4448 18.6375Z" fill="#FDFEFC"/>
<path fill-rule="evenodd" clip-rule="evenodd" d="M13.3666 25.3875C13.7809 25.3338 14.1368 25.4338 14.4342 25.6875C14.8827 26.3001 15.3098 26.9251 15.7153 27.5625C15.81 28.1969 15.4968 28.5469 14.7758 28.6125C14.5286 28.6101 14.315 28.5351 14.1352 28.3875C13.7558 32.7349 15.7772 35.8725 20.1993 37.8C21.0076 38.0949 21.8333 38.3449 22.6762 38.55C23.2728 39.0826 23.2158 39.5575 22.5054 39.975C22.2207 40.025 21.9359 40.025 21.6513 39.975C16.2471 38.6548 13.1012 35.5673 12.2135 30.7125C12.1514 29.7859 12.1655 28.8609 12.2562 27.9375C11.1087 27.8595 10.7956 27.372 11.3167 26.475C12.0146 26.1227 12.6979 25.7602 13.3666 25.3875Z" fill="#FDFEFC"/>
<path fill-rule="evenodd" clip-rule="evenodd" d="M34.2918 25.3875C34.7676 25.3062 35.1519 25.4312 35.4449 25.7625C36.9551 29.7553 36.2149 33.3802 33.2242 36.6375C31.918 37.8358 30.4233 38.7984 28.7402 39.525C29.1118 39.993 29.0548 40.4179 28.5694 40.8C28.2671 40.9128 27.954 40.9378 27.6299 40.875C27.0036 40.575 26.3772 40.275 25.7509 39.975C25.4298 39.6943 25.3302 39.3568 25.452 38.9625C25.8175 38.2324 26.2588 37.545 26.7758 36.9C27.7005 36.6696 28.213 36.9821 28.3132 37.8375C32.6273 35.8371 34.6059 32.6871 34.2491 28.3875C34.1246 27.6376 33.9395 26.9 33.694 26.175C33.7415 25.8213 33.9407 25.5588 34.2918 25.3875Z" fill="#FDFEFC"/>
</g>
<defs>
<clipPath id="clip0_47_74">
<rect width="48" height="48" fill="white"/>
</clipPath>
</defs>
</svg>
